<svg viewBox="0 0 292.4 318.43" xmlns="http://www.w3.org/2000/svg" xmlns:xlink="http://www.w3.org/1999/xlink"><linearGradient id="a"><stop offset=".43" stop-color="#5a00ff"/><stop offset=".54" stop-color="#5d00fe"/><stop offset=".64" stop-color="#6700fc"/><stop offset=".72" stop-color="#7800f9"/><stop offset=".8" stop-color="#9000f5"/><stop offset=".88" stop-color="#b000ef"/><stop offset=".95" stop-color="#d500e8"/><stop offset=".99" stop-color="#e900e4"/></linearGradient><linearGradient id="b" gradientTransform="matrix(1 0 0 -1 0 332.18)" gradientUnits="userSpaceOnUse" x1="134.31" x2="158.17" xlink:href="#a" y1="335.33" y2="198.35"/><linearGradient id="c" gradientTransform="matrix(1 0 0 -1 0 332.18)" gradientUnits="userSpaceOnUse" x1="169.83" x2="2.19" xlink:href="#a" y1="38.39" y2="297.54"/><linearGradient id="d" gradientTransform="matrix(1 0 0 -1 0 332.18)" gradientUnits="userSpaceOnUse" x1="123.35" x2="233.97" y1="253.47" y2="94.81"><stop offset="0" stop-color="#5a00ff"/><stop offset=".11" stop-color="#6401f1"/><stop offset=".86" stop-color="#ad0b93"/></linearGradient><path d="m252.4 40v2.63c-.01 22.56-18.3 40.83-40.86 40.82-.1 0-.19 0-.29 0l-120-1.12s-30.85 3.93-27.2 32.62l-24-24.45v-50.5z" fill="url(#b)"/><path d="m252.4 236.09c.04 23.35-18.85 42.3-42.2 42.34-.05 0-.09 0-.14 0h-170.06v-123.34l39.36 40.1v40.9z" fill="url(#c)"/><path d="m252.4 142.49c0 22.14-17.94 40.09-40.08 40.1h-81.72l-55.27-56.16-11.29-11.48c-3.65-28.69 27.2-32.62 27.2-32.62l55 58.67z" fill="url(#d)"/></svg>