<svg width="40" height="40" viewBox="0 0 40 40" fill="none" xmlns="http://www.w3.org/2000/svg">
  <path d="M32.9384 5.02513V5.35176C32.9384 8.19096 30.6228 10.4774 27.763 10.4774C27.7503 10.4774 27.7377 10.4774 27.725 10.4774L12.5404 10.3392C12.5404 10.3392 8.6303 10.8291 9.0985 14.4347L6.06156 11.3568V5.02513H32.9384Z"
        fill="url(#paint0_linear_1_2)"/>
  <path d="M32.9384 29.6608C32.9384 32.5879 30.5469 34.9749 27.5985 34.9749H27.5858H6.06156V19.4849L11.0472 24.5226V29.6608H32.9384Z"
        fill="url(#paint1_linear_1_2)"/>
  <path d="M32.8119 17.7764C32.8119 20.5528 30.5469 22.8141 27.7377 22.8141C27.7377 22.8141 27.7377 22.8141 27.725 22.8141H17.3995L10.4018 15.7538L8.97196 14.3216C8.51642 10.7161 12.4138 10.2261 12.4138 10.2261L19.3735 17.6005L32.8119 17.7764Z"
        fill="url(#paint2_linear_1_2)"/>
  <defs>
    <linearGradient id="paint0_linear_1_2" x1="17.9956" y1="-0.395163" x2="20.9728" y2="16.8207"
                    gradientUnits="userSpaceOnUse">
      <stop offset="0.43" stop-color="#5A00FF"/>
      <stop offset="0.54" stop-color="#5D00FE"/>
      <stop offset="0.64" stop-color="#6700FC"/>
      <stop offset="0.72" stop-color="#7800F9"/>
      <stop offset="0.8" stop-color="#9000F5"/>
      <stop offset="0.88" stop-color="#B000EF"/>
      <stop offset="0.95" stop-color="#D500E8"/>
      <stop offset="0.99" stop-color="#E900E4"/>
    </linearGradient>
    <linearGradient id="paint1_linear_1_2" x1="22.49" y1="36.9079" x2="1.49241" y2="4.21305"
                    gradientUnits="userSpaceOnUse">
      <stop offset="0.43" stop-color="#5A00FF"/>
      <stop offset="0.54" stop-color="#5D00FE"/>
      <stop offset="0.64" stop-color="#6700FC"/>
      <stop offset="0.72" stop-color="#7800F9"/>
      <stop offset="0.8" stop-color="#9000F5"/>
      <stop offset="0.88" stop-color="#B000EF"/>
      <stop offset="0.95" stop-color="#D500E8"/>
      <stop offset="0.99" stop-color="#E900E4"/>
    </linearGradient>
    <linearGradient id="paint2_linear_1_2" x1="16.4822" y1="9.76243" x2="30.3442" y2="29.7886"
                    gradientUnits="userSpaceOnUse">
      <stop stop-color="#5A00FF"/>
      <stop offset="0.11" stop-color="#6401F1"/>
      <stop offset="0.86" stop-color="#AD0B93"/>
    </linearGradient>
  </defs>
</svg>
