<svg width="10" height="11" viewBox="0 0 10 11" fill="none" xmlns="http://www.w3.org/2000/svg">
<g clip-path="url(#clip0_6_64)">
<g filter="url(#filter0_d_6_64)">
<path d="M8.11105 7.758C8.11105 8.44213 7.55739 9 6.87483 9H6.8719H1.88892V5.37971L3.04312 6.55711V7.758H8.11105Z" stroke="#AFB1B3" stroke-width="0.75" stroke-miterlimit="2" stroke-linejoin="round"/>
<path d="M6.9133 3.27441L6.9133 3.64941L6.91342 3.64941L6.9133 3.27441ZM6.90451 3.27441L6.90107 3.64941H6.90451V3.27441ZM3.38889 3.24219L3.30017 3.60654C3.32809 3.61334 3.35671 3.61691 3.38545 3.61717L3.38889 3.24219ZM3.38498 3.24219L3.33117 2.87107C3.193 2.8911 3.0774 2.98623 3.03115 3.11796C2.9849 3.24969 3.01566 3.3962 3.11098 3.49821L3.38498 3.24219ZM4.97092 4.93945L4.69692 5.19548C4.76666 5.27012 4.86383 5.31307 4.96597 5.31442L4.97092 4.93945ZM8.08127 4.98047L8.45627 4.98049C8.45628 4.77531 8.29138 4.60821 8.08621 4.6055L8.08127 4.98047ZM6.90744 6.1582L6.90744 6.5332L6.90756 6.5332L6.90744 6.1582ZM4.51389 6.1582L4.24628 6.4209C4.31679 6.49274 4.41323 6.5332 4.51389 6.5332V6.1582ZM2.89377 4.50781L3.16138 4.24511L3.16048 4.24421L2.89377 4.50781ZM2.56271 4.17285L2.19061 4.21939C2.20087 4.30138 2.23791 4.37769 2.296 4.43646L2.56271 4.17285ZM2.56174 4.16895L2.93399 4.12366C2.92405 4.04192 2.88748 3.96573 2.82993 3.90684L2.56174 4.16895ZM1.88889 3.48047H1.51389C1.51389 3.57843 1.55222 3.67251 1.62069 3.74257L1.88889 3.48047ZM1.88889 2V1.625C1.68178 1.625 1.51389 1.79289 1.51389 2H1.88889ZM8.11057 2H8.48557C8.48557 1.79289 8.31767 1.625 8.11057 1.625V2ZM8.11057 2.07617H7.73557C7.73557 2.53248 7.36807 2.89927 6.91318 2.89941L6.9133 3.27441L6.91342 3.64941C7.78228 3.64914 8.48557 2.94675 8.48557 2.07617H8.11057ZM6.9133 3.27441V2.89941H6.90451V3.27441V3.64941H6.9133V3.27441ZM6.90451 3.27441L6.90795 2.89943L3.39232 2.8672L3.38889 3.24219L3.38545 3.61717L6.90107 3.6494L6.90451 3.27441ZM3.38889 3.24219C3.47761 2.87783 3.4775 2.87781 3.47739 2.87778C3.47735 2.87777 3.47724 2.87774 3.47717 2.87773C3.47702 2.87769 3.47687 2.87766 3.47673 2.87762C3.47643 2.87755 3.47614 2.87748 3.47584 2.87741C3.47525 2.87727 3.47466 2.87713 3.47406 2.87699C3.47287 2.87671 3.47167 2.87644 3.47046 2.87617C3.46803 2.87562 3.46555 2.8751 3.46303 2.87459C3.45799 2.87357 3.45275 2.87262 3.44734 2.87176C3.43651 2.87005 3.42491 2.86869 3.41261 2.86787C3.38795 2.86624 3.36053 2.86681 3.33117 2.87107L3.38498 3.24219L3.43879 3.61331C3.41187 3.61721 3.38641 3.61778 3.36309 3.61624C3.35146 3.61547 3.34038 3.61417 3.3299 3.61251C3.32466 3.61168 3.31956 3.61076 3.31461 3.60976C3.31213 3.60926 3.30969 3.60874 3.30728 3.6082C3.30608 3.60793 3.30488 3.60766 3.3037 3.60738C3.3031 3.60725 3.30251 3.60711 3.30193 3.60697C3.30163 3.6069 3.30134 3.60682 3.30104 3.60675C3.3009 3.60672 3.30075 3.60668 3.3006 3.60665C3.30053 3.60663 3.30042 3.6066 3.30038 3.60659C3.30028 3.60657 3.30017 3.60654 3.38889 3.24219ZM3.38498 3.24219L3.11098 3.49821L4.69692 5.19548L4.97092 4.93945L5.24492 4.68343L3.65898 2.98616L3.38498 3.24219ZM4.97092 4.93945L4.96597 5.31442L8.07632 5.35544L8.08127 4.98047L8.08621 4.6055L4.97586 4.56449L4.97092 4.93945ZM8.08127 4.98047L7.70627 4.98044C7.70624 5.42391 7.34861 5.78306 6.90732 5.7832L6.90744 6.1582L6.90756 6.5332C7.76652 6.53292 8.45621 5.83448 8.45627 4.98049L8.08127 4.98047ZM6.90744 6.1582V5.7832H4.51389V6.1582V6.5332H6.90744V6.1582ZM4.51389 6.1582L4.78149 5.8955L3.16138 4.24511L2.89377 4.50781L2.62616 4.77051L4.24628 6.4209L4.51389 6.1582ZM2.89377 4.50781L3.16048 4.24421L2.82943 3.90925L2.56271 4.17285L2.296 4.43646L2.62705 4.77142L2.89377 4.50781ZM2.56271 4.17285L2.93481 4.12631C2.93199 4.10372 2.92767 4.0858 2.92483 4.07518C2.92338 4.06973 2.92208 4.06533 2.92127 4.06266C2.92085 4.06129 2.92051 4.06018 2.92029 4.05948C2.92018 4.05913 2.92009 4.05883 2.92003 4.05864C2.91997 4.05847 2.91992 4.05831 2.91992 4.0583C2.91978 4.05786 2.92037 4.05971 2.92104 4.06194C2.92178 4.06437 2.92301 4.06853 2.92439 4.07376C2.92709 4.08393 2.93129 4.10144 2.93399 4.12366L2.56174 4.16895L2.18948 4.21423C2.19226 4.23711 2.1966 4.25527 2.19948 4.2661C2.20095 4.27165 2.20227 4.27613 2.2031 4.27888C2.20353 4.2803 2.20389 4.28145 2.20412 4.28219C2.20433 4.28288 2.20452 4.28347 2.20453 4.28349C2.2047 4.28404 2.20412 4.28222 2.20348 4.2801C2.20277 4.27775 2.20156 4.27368 2.20019 4.26856C2.19753 4.25859 2.19336 4.24132 2.19061 4.21939L2.56271 4.17285ZM2.56174 4.16895L2.82993 3.90684L2.15708 3.21836L1.88889 3.48047L1.62069 3.74257L2.29355 4.43105L2.56174 4.16895ZM1.88889 3.48047H2.26389V2H1.88889H1.51389V3.48047H1.88889ZM1.88889 2V2.375H8.11057V2V1.625H1.88889V2ZM8.11057 2H7.73557V2.07617H8.11057H8.48557V2H8.11057Z" fill="#AFB1B3"/>
</g>
</g>
<defs>
<filter id="filter0_d_6_64" x="-2.48611" y="1.625" width="14.9722" height="15.75" filterUnits="userSpaceOnUse" color-interpolation-filters="sRGB">
<feFlood flood-opacity="0" result="BackgroundImageFix"/>
<feColorMatrix in="SourceAlpha" type="matrix" values="0 0 0 0 0 0 0 0 0 0 0 0 0 0 0 0 0 0 127 0" result="hardAlpha"/>
<feOffset dy="4"/>
<feGaussianBlur stdDeviation="2"/>
<feComposite in2="hardAlpha" operator="out"/>
<feColorMatrix type="matrix" values="0 0 0 0 0 0 0 0 0 0 0 0 0 0 0 0 0 0 0.25 0"/>
<feBlend mode="normal" in2="BackgroundImageFix" result="effect1_dropShadow_6_64"/>
<feBlend mode="normal" in="SourceGraphic" in2="effect1_dropShadow_6_64" result="shape"/>
</filter>
<clipPath id="clip0_6_64">
<rect width="10" height="11" fill="white"/>
</clipPath>
</defs>
</svg>
