<svg xmlns="http://www.w3.org/2000/svg" xml:space="preserve" id="Layer_1" x="0" y="0" style="enable-background:new 0 0 292.4 318.4" version="1.1" viewBox="0 0 292.4 318.4"><style>.st1{fill:url(#TOPDARK)}.st2{fill:url(#MIDDARK)}.st3{fill:url(#BTMDARK)}</style><linearGradient id="TOPDARK" x1="134.3115" x2="158.1715" y1="506.5643" y2="643.5443" gradientTransform="translate(0 -509.7098)" gradientUnits="userSpaceOnUse"><stop offset=".43" style="stop-color:silver"/><stop offset=".54" style="stop-color:#cacaca"/><stop offset=".64" style="stop-color:#d4d4d4"/><stop offset=".72" style="stop-color:#dedede"/><stop offset=".8" style="stop-color:#e8e8e8"/><stop offset=".88" style="stop-color:#f2f2f2"/><stop offset=".95" style="stop-color:#fcfcfc"/><stop offset=".99" style="stop-color:#fff"/></linearGradient><path d="M252.4 40v2.6c0 22.6-18.3 40.8-40.9 40.8h-.3l-120-1.1S60.3 86.2 64 114.9L40 90.4V40h212.4z" class="st1"/><linearGradient id="BTMDARK" x1="169.8289" x2="2.1889" y1="803.497" y2="544.347" gradientTransform="translate(0 -509.7098)" gradientUnits="userSpaceOnUse"><stop offset=".43" style="stop-color:silver"/><stop offset=".54" style="stop-color:#cacaca"/><stop offset=".64" style="stop-color:#d4d4d4"/><stop offset=".72" style="stop-color:#dedede"/><stop offset=".8" style="stop-color:#e8e8e8"/><stop offset=".88" style="stop-color:#f2f2f2"/><stop offset=".95" style="stop-color:#fcfcfc"/><stop offset=".99" style="stop-color:#fff"/></linearGradient><path d="M252.4 236.1c0 23.3-18.9 42.3-42.2 42.3H40V155.1l39.4 40.1v40.9h173z" class="st2"/><linearGradient id="MIDDARK" x1="122.3516" x2="232.9716" y1="587.4187" y2="746.0787" gradientTransform="translate(0 -509.7098)" gradientUnits="userSpaceOnUse"><stop offset="0" style="stop-color:#d500e8"/><stop offset=".11" style="stop-color:#d4d4d4"/><stop offset=".86" style="stop-color:silver"/></linearGradient><path d="M251.4 141.5c0 22.1-17.9 40.1-40.1 40.1H129.6l-55.3-56.2L63 114c-3.6-28.7 27.2-32.6 27.2-32.6l55 58.7 106.2 1.4z" class="st3"/></svg>
