<?xml version="1.0" encoding="UTF-8"?><svg id="Layer_2" xmlns="http://www.w3.org/2000/svg" xmlns:xlink="http://www.w3.org/1999/xlink" viewBox="0 0 212.4 238.43"><defs><style>.cls-1{fill:url(#linear-gradient);}.cls-2{fill:url(#linear-gradient-3);}.cls-3{fill:url(#linear-gradient-2);}</style><linearGradient id="linear-gradient" x1="94.31" y1="295.33" x2="118.17" y2="158.35" gradientTransform="translate(0 252.18) scale(1 -1)" gradientUnits="userSpaceOnUse"><stop offset=".43" stop-color="#5a00ff"/><stop offset=".54" stop-color="#5d00fe"/><stop offset=".64" stop-color="#6700fc"/><stop offset=".72" stop-color="#7800f9"/><stop offset=".8" stop-color="#9000f5"/><stop offset=".88" stop-color="#b000ef"/><stop offset=".95" stop-color="#d500e8"/><stop offset=".99" stop-color="#e900e4"/></linearGradient><linearGradient id="linear-gradient-2" x1="129.83" y1="-1.61" x2="-37.81" y2="257.54" xlink:href="#linear-gradient"/><linearGradient id="linear-gradient-3" x1="83.35" y1="213.47" x2="193.97" y2="54.81" gradientTransform="translate(0 252.18) scale(1 -1)" gradientUnits="userSpaceOnUse"><stop offset="0" stop-color="#5a00ff"/><stop offset=".11" stop-color="#6401f1"/><stop offset=".86" stop-color="#ad0b93"/></linearGradient></defs><g id="Layer_1-2"><g id="Layer_2-2"><g id="Layer_1-2"><path class="cls-1" d="M212.4,0V2.63c-.01,22.56-18.3,40.83-40.86,40.82-.1,0-.19,0-.29,0l-120-1.12s-30.85,3.93-27.2,32.62L.05,50.5V0H212.4Z"/><path class="cls-3" d="M212.4,196.09c.04,23.35-18.85,42.3-42.2,42.34-.05,0-.09,0-.14,0H0V115.09l39.36,40.1v40.9H212.4Z"/><path class="cls-2" d="M212.4,102.49c0,22.14-17.94,40.09-40.08,40.1-.02,0-.05,0-.07,0H90.6l-55.27-56.16-11.29-11.48c-3.65-28.69,27.2-32.62,27.2-32.62l55,58.67,106.16,1.49Z"/></g></g></g></svg>